<?xml version="1.0" encoding="iso-8859-1"?>
<!-- Generator: Adobe Illustrator 19.0.0, SVG Export Plug-In . SVG Version: 6.00 Build 0)  -->
<svg version="1.1" id="Capa_1" xmlns="http://www.w3.org/2000/svg" xmlns:xlink="http://www.w3.org/1999/xlink" x="0px" y="0px"
	 viewBox="0 0 512 512" style="enable-background:new 0 0 512 512;" xml:space="preserve">
<path style="fill:#E36F91;" d="M315,134V87.5H197V134l-54.12,22.6c-22.336,9.327-36.88,31.162-36.88,55.367V444.5
	c0,33.137,26.863,60,60,60h180c33.137,0,60-26.863,60-60V211.966c0-24.205-14.544-46.04-36.88-55.367L315,134z"/>
<path style="fill:#B04663;" d="M369.12,156.6L315,134V87.5h-24V134l54.12,22.6c22.336,9.327,36.88,31.162,36.88,55.367V444.5
	c0,33.137-26.863,60-60,60h24c33.137,0,60-26.863,60-60V211.966C406,187.761,391.456,165.927,369.12,156.6z"/>
<rect x="106" y="223.67" style="fill:#E8C778;" width="300" height="218"/>
<rect x="382" y="223.67" style="fill:#D99A4A;" width="24" height="218"/>
<path style="fill:#FFFFFF;" d="M319.587,317.612c0-35.279-28.73-63.847-64.069-63.585c-35.061,0.26-63.105,29.322-63.105,64.383
	v44.3h20.782l-2.189,4.135c-2.567,4.848,0.948,10.685,6.433,10.685h15.672v25.827h45.778V377.53h15.672
	c5.486,0,9-5.837,6.433-10.685l-2.189-4.135h20.782L319.587,317.612L319.587,317.612z"/>
<g>
	<circle style="fill:#747693;" cx="284.23" cy="329.75" r="14.224"/>
	<circle style="fill:#747693;" cx="227.77" cy="329.75" r="14.224"/>
	<path style="fill:#747693;" d="M156,22.5v50c0,8.284,6.716,15,15,15h170c8.284,0,15-6.716,15-15v-50c0-8.284-6.716-15-15-15H171
		C162.716,7.5,156,14.216,156,22.5z"/>
</g>
<path style="fill:#545777;" d="M341,7.5h-25.116c8.284,0,15,6.716,15,15v50c0,8.284-6.716,15-15,15H341c8.284,0,15-6.716,15-15v-50
	C356,14.216,349.284,7.5,341,7.5z"/>
<path d="M372.01,149.679l-49.51-20.675V95H341c12.406,0,22.5-10.094,22.5-22.5v-50C363.5,10.094,353.406,0,341,0H171
	c-12.407,0-22.5,10.094-22.5,22.5v50c0,12.406,10.093,22.5,22.5,22.5h18.5v34.004l-49.51,20.675
	c-25.204,10.525-41.49,34.974-41.49,62.287v11.701v218v2.833c0,37.22,30.28,67.5,67.5,67.5h180c37.22,0,67.5-30.28,67.5-67.5v-2.833
	v-218v-11.701C413.5,184.652,397.214,160.204,372.01,149.679z M145.77,163.52l54.12-22.6c2.792-1.166,4.61-3.895,4.61-6.921V95h11
	c4.142,0,7.5-3.357,7.5-7.5s-3.358-7.5-7.5-7.5H171c-4.136,0-7.5-3.364-7.5-7.5v-50c0-4.136,3.364-7.5,7.5-7.5h170
	c4.136,0,7.5,3.364,7.5,7.5v50c0,4.136-3.364,7.5-7.5,7.5h-94.833c-4.142,0-7.5,3.357-7.5,7.5s3.358,7.5,7.5,7.5H307.5v39
	c0,3.025,1.818,5.755,4.61,6.921l54.12,22.6c19.603,8.186,32.27,27.202,32.27,48.445v4.201h-285v-4.201
	C113.5,190.723,126.166,171.706,145.77,163.52z M398.5,434.167h-285v-203h285V434.167z M346,497H166
	c-27.375,0-49.911-21.064-52.281-47.833h284.563C395.91,475.936,373.375,497,346,497z"/>
<path d="M284.228,351.47c11.979,0,21.724-9.746,21.724-21.725c0-11.978-9.745-21.724-21.724-21.724
	c-11.978,0-21.725,9.745-21.725,21.724C262.504,341.724,272.25,351.47,284.228,351.47z M284.228,323.022
	c3.707,0,6.724,3.017,6.724,6.724c0,3.708-3.017,6.725-6.724,6.725c-3.708,0-6.725-3.017-6.725-6.725
	C277.504,326.038,280.52,323.022,284.228,323.022z"/>
<path d="M249.496,329.745c0-11.978-9.746-21.724-21.724-21.724s-21.724,9.745-21.724,21.724s9.746,21.725,21.724,21.725
	S249.496,341.724,249.496,329.745z M221.047,329.745c0-3.707,3.017-6.724,6.724-6.724c3.708,0,6.724,3.017,6.724,6.724
	c0,3.708-3.017,6.725-6.724,6.725S221.047,333.453,221.047,329.745z"/>
<path d="M140.206,374.967l14.612,12.142l3.209,18.725c0.626,3.654,3.797,6.234,7.383,6.234c0.42,0,0.847-0.035,1.276-0.108
	c4.082-0.7,6.825-4.577,6.125-8.659l-2.795-16.31l12.112-6.994c3.587-2.071,4.816-6.658,2.745-10.245s-6.659-4.816-10.246-2.745
	L162.515,374l-12.722-10.571c-3.185-2.646-7.914-2.211-10.562,0.976C136.584,367.591,137.021,372.319,140.206,374.967z"/>
<path d="M145.004,295.685c1.689,0,3.389-0.567,4.79-1.732l12.722-10.572l18.422,10.636c1.181,0.682,2.471,1.006,3.743,1.006
	c1.711,0,3.384-0.597,4.728-1.688c-2.898,7.818-4.495,16.266-4.495,25.074v44.3c0,4.143,3.358,7.5,7.5,7.5h10.23
	c-0.009,2.647,0.705,5.289,2.135,7.664c2.698,4.48,7.431,7.156,12.662,7.156h8.172v18.327c0,4.143,3.358,7.5,7.5,7.5h45.778
	c4.143,0,7.5-3.357,7.5-7.5V385.03h8.172c5.23,0,9.964-2.675,12.662-7.156c1.43-2.374,2.144-5.017,2.135-7.664h10.23
	c4.143,0,7.5-3.357,7.5-7.5v-45.099c0-8.446-1.467-16.661-4.27-24.364c1.339,1.076,3.001,1.663,4.699,1.663
	c1.272,0,2.563-0.324,3.743-1.006l18.225-10.524l12.721,10.572c1.401,1.164,3.101,1.732,4.79,1.732c2.152,0,4.289-0.922,5.772-2.706
	c2.647-3.186,2.211-7.915-0.975-10.563l-14.612-12.143l-3.209-18.725c-0.7-4.083-4.588-6.824-8.659-6.126
	c-4.083,0.7-6.825,4.577-6.126,8.659l2.796,16.31l-18.223,10.523c-2.185,1.261-3.488,3.456-3.711,5.788
	c-3.464-7.164-8.151-13.768-13.97-19.544c-13.547-13.447-31.521-20.745-50.617-20.633c-27.744,0.205-51.788,16.673-63.304,40.373
	c-0.199-2.364-1.51-4.596-3.721-5.872l-18.42-10.635l2.795-16.31c0.7-4.082-2.043-7.959-6.125-8.659
	c-4.084-0.696-7.96,2.043-8.659,6.126l-3.209,18.725l-14.612,12.143c-3.185,2.648-3.622,7.376-0.975,10.562
	C140.715,294.763,142.852,295.685,145.004,295.685z M199.913,318.41c0-31.139,24.969-56.656,55.66-56.884
	c0.144-0.001,0.285-0.002,0.428-0.002c14.906,0,28.925,5.772,39.511,16.28c10.689,10.61,16.575,24.747,16.575,39.807v37.599h-13.282
	c-2.631,0-5.068,1.378-6.425,3.632c-1.357,2.253-1.435,5.053-0.204,7.377l2.018,3.811h-15.305c-4.143,0-7.5,3.357-7.5,7.5v18.327
	h-30.778V377.53c0-4.143-3.358-7.5-7.5-7.5h-15.305l2.017-3.811c1.231-2.324,1.154-5.124-0.203-7.377
	c-1.357-2.254-3.795-3.632-6.425-3.632h-13.282L199.913,318.41L199.913,318.41z"/>
<path d="M362.207,363.43l-12.721,10.571l-12.115-6.995c-3.586-2.071-8.174-0.843-10.245,2.745
	c-2.071,3.587-0.842,8.174,2.745,10.245l12.112,6.993l-2.796,16.31c-0.699,4.082,2.043,7.959,6.126,8.659
	c0.429,0.073,0.854,0.108,1.275,0.108c3.586,0,6.757-2.58,7.384-6.234l3.209-18.725l14.611-12.142
	c3.186-2.647,3.623-7.376,0.976-10.561C370.121,361.219,365.392,360.783,362.207,363.43z"/>
<g>
</g>
<g>
</g>
<g>
</g>
<g>
</g>
<g>
</g>
<g>
</g>
<g>
</g>
<g>
</g>
<g>
</g>
<g>
</g>
<g>
</g>
<g>
</g>
<g>
</g>
<g>
</g>
<g>
</g>
</svg>
